<svg xmlns="http://www.w3.org/2000/svg" xmlns:xlink="http://www.w3.org/1999/xlink" width="500" zoomAndPan="magnify" viewBox="0 0 375 374.999991" height="500" preserveAspectRatio="xMidYMid meet" version="1.0"><defs><g/><clipPath id="2dfea4b650"><path d="M 122 8.4375 L 347.65625 8.4375 L 347.65625 313.546875 L 122 313.546875 Z M 122 8.4375 " clip-rule="nonzero"/></clipPath><clipPath id="c1f1fe492d"><path d="M 27.375 94 L 196 94 L 196 313.546875 L 27.375 313.546875 Z M 27.375 94 " clip-rule="nonzero"/></clipPath></defs><rect x="-37.5" width="450" fill="#ffffff" y="-37.499999" height="449.999989" fill-opacity="1"/><rect x="-37.5" width="450" fill="#ffffff" y="-37.499999" height="449.999989" fill-opacity="1"/><rect x="-37.5" width="450" fill="#ffffff" y="-37.499999" height="449.999989" fill-opacity="1"/><g clip-path="url(#2dfea4b650)"><path fill="#5333ed" d="M 312.53125 305.476562 L 312.53125 49.535156 L 250.941406 9.171875 C 250.207031 8.621094 249.105469 8.4375 248.183594 8.4375 L 126.292969 24.949219 C 124.273438 25.132812 122.800781 26.96875 122.800781 28.988281 L 122.800781 88.796875 L 193.214844 98.339844 C 199.097656 99.070312 203.511719 104.210938 203.511719 110.082031 L 203.511719 308.59375 C 203.511719 310.0625 203.140625 311.53125 202.773438 312.8125 L 248.738281 313.546875 C 249.839844 313.546875 250.941406 313.179688 251.679688 312.445312 C 252.414062 311.714844 252.964844 310.613281 252.964844 309.511719 L 252.964844 20.179688 L 266.386719 28.988281 L 266.386719 312.8125 L 274.660156 312.8125 L 274.660156 34.308594 L 285.875 41.644531 L 285.507812 41.644531 L 285.507812 312.8125 L 293.78125 312.8125 L 293.78125 46.785156 L 304.625 53.9375 L 304.625 313.546875 L 347.464844 313.546875 L 347.464844 305.292969 Z M 168.394531 64.398438 L 150.746094 64.398438 L 150.746094 46.785156 L 168.394531 46.785156 Z M 234.398438 101.457031 L 216.746094 101.457031 L 216.746094 83.84375 L 234.398438 83.84375 Z M 234.398438 45.683594 L 216.746094 45.683594 L 216.746094 28.070312 L 234.398438 28.070312 Z M 234.398438 45.683594 " fill-opacity="1" fill-rule="nonzero"/></g><g clip-path="url(#c1f1fe492d)"><path fill="#5333ed" d="M 191.925781 106.410156 L 104.96875 94.667969 C 104.046875 94.484375 103.128906 94.851562 102.394531 95.21875 L 58.269531 124.207031 L 58.269531 306.210938 L 27.566406 306.210938 L 27.566406 313.546875 L 65.625 313.546875 L 65.625 128.242188 L 72.058594 124.023438 L 72.058594 312.261719 L 79.414062 312.261719 L 79.414062 119.253906 L 85.664062 115.21875 L 85.664062 312.261719 L 93.015625 312.261719 L 93.015625 110.449219 L 101.105469 105.125 L 101.105469 309.878906 C 101.105469 310.796875 101.472656 311.714844 102.210938 312.445312 C 102.945312 313.179688 103.863281 313.546875 104.785156 313.546875 L 191.742188 312.261719 C 193.765625 312.261719 195.421875 310.613281 195.421875 308.59375 L 195.421875 110.082031 C 195.238281 108.246094 193.765625 106.777344 191.925781 106.410156 Z M 139.714844 240.34375 L 122.066406 240.34375 L 122.066406 222.730469 L 139.714844 222.730469 Z M 139.714844 144.941406 L 122.066406 144.941406 L 122.066406 127.328125 L 139.714844 127.328125 Z M 179.242188 287.128906 L 161.59375 287.128906 L 161.59375 269.515625 L 179.242188 269.515625 Z M 179.242188 192.640625 L 161.59375 192.640625 L 161.59375 175.027344 L 179.242188 175.027344 Z M 179.242188 192.640625 " fill-opacity="1" fill-rule="nonzero"/></g><g fill="#5333ed" fill-opacity="1"><g transform="translate(25.81211, 353.34585)"><g><path d="M 2.1875 -30.03125 L 12.921875 -30.03125 C 15.804688 -30.03125 18.160156 -29.257812 19.984375 -27.71875 C 21.804688 -26.175781 22.71875 -23.972656 22.71875 -21.109375 C 22.71875 -18.898438 22.164062 -17.050781 21.0625 -15.5625 C 19.957031 -14.070312 18.457031 -13.023438 16.5625 -12.421875 L 26.90625 0 L 18.203125 0 L 9.03125 -11.875 L 9.03125 0 L 2.1875 0 Z M 9.03125 -16.703125 L 9.828125 -16.703125 C 10.460938 -16.703125 11 -16.710938 11.4375 -16.734375 C 11.875 -16.765625 12.367188 -16.851562 12.921875 -17 C 13.484375 -17.144531 13.929688 -17.347656 14.265625 -17.609375 C 14.609375 -17.878906 14.898438 -18.269531 15.140625 -18.78125 C 15.390625 -19.289062 15.515625 -19.910156 15.515625 -20.640625 C 15.515625 -21.367188 15.390625 -21.988281 15.140625 -22.5 C 14.898438 -23.007812 14.609375 -23.394531 14.265625 -23.65625 C 13.929688 -23.925781 13.484375 -24.132812 12.921875 -24.28125 C 12.367188 -24.425781 11.875 -24.507812 11.4375 -24.53125 C 11 -24.5625 10.460938 -24.578125 9.828125 -24.578125 L 9.03125 -24.578125 Z M 9.03125 -16.703125 "/></g></g></g><g fill="#5333ed" fill-opacity="1"><g transform="translate(51.87482, 353.34585)"><g><path d="M 21.078125 -8.453125 L 7.53125 -8.453125 C 7.53125 -7.140625 7.953125 -6.164062 8.796875 -5.53125 C 9.648438 -4.90625 10.578125 -4.59375 11.578125 -4.59375 C 12.617188 -4.59375 13.441406 -4.726562 14.046875 -5 C 14.660156 -5.28125 15.351562 -5.832031 16.125 -6.65625 L 20.78125 -4.328125 C 18.84375 -1.078125 15.617188 0.546875 11.109375 0.546875 C 8.285156 0.546875 5.867188 -0.414062 3.859375 -2.34375 C 1.847656 -4.28125 0.84375 -6.601562 0.84375 -9.3125 C 0.84375 -12.03125 1.847656 -14.359375 3.859375 -16.296875 C 5.867188 -18.242188 8.285156 -19.21875 11.109375 -19.21875 C 14.066406 -19.21875 16.472656 -18.363281 18.328125 -16.65625 C 20.179688 -14.945312 21.109375 -12.5 21.109375 -9.3125 C 21.109375 -8.882812 21.097656 -8.597656 21.078125 -8.453125 Z M 7.71875 -12.015625 L 14.8125 -12.015625 C 14.664062 -12.984375 14.285156 -13.726562 13.671875 -14.25 C 13.054688 -14.769531 12.257812 -15.03125 11.28125 -15.03125 C 10.21875 -15.03125 9.367188 -14.75 8.734375 -14.1875 C 8.109375 -13.632812 7.769531 -12.910156 7.71875 -12.015625 Z M 7.71875 -12.015625 "/></g></g></g><g fill="#5333ed" fill-opacity="1"><g transform="translate(73.824293, 353.34585)"><g><path d="M 12.125 -13.9375 C 10.90625 -13.9375 9.859375 -13.488281 8.984375 -12.59375 C 8.117188 -11.695312 7.6875 -10.617188 7.6875 -9.359375 C 7.6875 -8.066406 8.117188 -6.972656 8.984375 -6.078125 C 9.859375 -5.179688 10.90625 -4.734375 12.125 -4.734375 C 12.707031 -4.734375 13.257812 -4.804688 13.78125 -4.953125 C 14.300781 -5.097656 14.679688 -5.242188 14.921875 -5.390625 L 15.25 -5.609375 L 17.4375 -1.125 C 17.269531 -1.007812 17.035156 -0.859375 16.734375 -0.671875 C 16.429688 -0.492188 15.738281 -0.25 14.65625 0.0625 C 13.570312 0.382812 12.410156 0.546875 11.171875 0.546875 C 8.429688 0.546875 6.023438 -0.414062 3.953125 -2.34375 C 1.878906 -4.28125 0.84375 -6.59375 0.84375 -9.28125 C 0.84375 -12 1.878906 -14.332031 3.953125 -16.28125 C 6.023438 -18.238281 8.429688 -19.21875 11.171875 -19.21875 C 12.410156 -19.21875 13.550781 -19.070312 14.59375 -18.78125 C 15.644531 -18.488281 16.382812 -18.195312 16.8125 -17.90625 L 17.4375 -17.46875 L 15.25 -13.0625 C 14.445312 -13.644531 13.40625 -13.9375 12.125 -13.9375 Z M 12.125 -13.9375 "/></g></g></g><g fill="#5333ed" fill-opacity="1"><g transform="translate(91.696897, 353.34585)"><g><path d="M 21.078125 -8.453125 L 7.53125 -8.453125 C 7.53125 -7.140625 7.953125 -6.164062 8.796875 -5.53125 C 9.648438 -4.90625 10.578125 -4.59375 11.578125 -4.59375 C 12.617188 -4.59375 13.441406 -4.726562 14.046875 -5 C 14.660156 -5.28125 15.351562 -5.832031 16.125 -6.65625 L 20.78125 -4.328125 C 18.84375 -1.078125 15.617188 0.546875 11.109375 0.546875 C 8.285156 0.546875 5.867188 -0.414062 3.859375 -2.34375 C 1.847656 -4.28125 0.84375 -6.601562 0.84375 -9.3125 C 0.84375 -12.03125 1.847656 -14.359375 3.859375 -16.296875 C 5.867188 -18.242188 8.285156 -19.21875 11.109375 -19.21875 C 14.066406 -19.21875 16.472656 -18.363281 18.328125 -16.65625 C 20.179688 -14.945312 21.109375 -12.5 21.109375 -9.3125 C 21.109375 -8.882812 21.097656 -8.597656 21.078125 -8.453125 Z M 7.71875 -12.015625 L 14.8125 -12.015625 C 14.664062 -12.984375 14.285156 -13.726562 13.671875 -14.25 C 13.054688 -14.769531 12.257812 -15.03125 11.28125 -15.03125 C 10.21875 -15.03125 9.367188 -14.75 8.734375 -14.1875 C 8.109375 -13.632812 7.769531 -12.910156 7.71875 -12.015625 Z M 7.71875 -12.015625 "/></g></g></g><g fill="#5333ed" fill-opacity="1"><g transform="translate(113.646369, 353.34585)"><g><path d="M 21.40625 -16.359375 C 23.15625 -14.453125 24.03125 -12.113281 24.03125 -9.34375 C 24.03125 -6.582031 23.15625 -4.242188 21.40625 -2.328125 C 19.65625 -0.410156 17.4375 0.546875 14.75 0.546875 C 12.269531 0.546875 10.226562 -0.226562 8.625 -1.78125 L 8.625 9.46875 L 2.1875 9.46875 L 2.1875 -18.671875 L 8.5625 -18.671875 L 8.5625 -16.5625 L 8.625 -16.5625 C 10.226562 -18.332031 12.269531 -19.21875 14.75 -19.21875 C 17.4375 -19.21875 19.65625 -18.265625 21.40625 -16.359375 Z M 15.921875 -6.1875 C 16.765625 -7.007812 17.1875 -8.0625 17.1875 -9.34375 C 17.1875 -10.632812 16.785156 -11.6875 15.984375 -12.5 C 15.179688 -13.3125 14.125 -13.71875 12.8125 -13.71875 C 11.550781 -13.71875 10.515625 -13.304688 9.703125 -12.484375 C 8.890625 -11.660156 8.484375 -10.617188 8.484375 -9.359375 C 8.484375 -8.066406 8.898438 -7.007812 9.734375 -6.1875 C 10.578125 -5.363281 11.601562 -4.953125 12.8125 -4.953125 C 14.050781 -4.953125 15.085938 -5.363281 15.921875 -6.1875 Z M 15.921875 -6.1875 "/></g></g></g><g fill="#5333ed" fill-opacity="1"><g transform="translate(138.507857, 353.34585)"><g><path d="M 12.125 -13.9375 C 10.90625 -13.9375 9.859375 -13.488281 8.984375 -12.59375 C 8.117188 -11.695312 7.6875 -10.617188 7.6875 -9.359375 C 7.6875 -8.066406 8.117188 -6.972656 8.984375 -6.078125 C 9.859375 -5.179688 10.90625 -4.734375 12.125 -4.734375 C 12.707031 -4.734375 13.257812 -4.804688 13.78125 -4.953125 C 14.300781 -5.097656 14.679688 -5.242188 14.921875 -5.390625 L 15.25 -5.609375 L 17.4375 -1.125 C 17.269531 -1.007812 17.035156 -0.859375 16.734375 -0.671875 C 16.429688 -0.492188 15.738281 -0.25 14.65625 0.0625 C 13.570312 0.382812 12.410156 0.546875 11.171875 0.546875 C 8.429688 0.546875 6.023438 -0.414062 3.953125 -2.34375 C 1.878906 -4.28125 0.84375 -6.59375 0.84375 -9.28125 C 0.84375 -12 1.878906 -14.332031 3.953125 -16.28125 C 6.023438 -18.238281 8.429688 -19.21875 11.171875 -19.21875 C 12.410156 -19.21875 13.550781 -19.070312 14.59375 -18.78125 C 15.644531 -18.488281 16.382812 -18.195312 16.8125 -17.90625 L 17.4375 -17.46875 L 15.25 -13.0625 C 14.445312 -13.644531 13.40625 -13.9375 12.125 -13.9375 Z M 12.125 -13.9375 "/></g></g></g><g fill="#5333ed" fill-opacity="1"><g transform="translate(156.380461, 353.34585)"><g><path d="M 2.796875 -29.078125 C 3.554688 -29.835938 4.457031 -30.21875 5.5 -30.21875 C 6.539062 -30.21875 7.4375 -29.835938 8.1875 -29.078125 C 8.9375 -28.328125 9.3125 -27.429688 9.3125 -26.390625 C 9.3125 -25.347656 8.9375 -24.453125 8.1875 -23.703125 C 7.4375 -22.953125 6.539062 -22.578125 5.5 -22.578125 C 4.457031 -22.578125 3.554688 -22.953125 2.796875 -23.703125 C 2.046875 -24.453125 1.671875 -25.347656 1.671875 -26.390625 C 1.671875 -27.429688 2.046875 -28.328125 2.796875 -29.078125 Z M 2.1875 -18.671875 L 2.1875 0 L 8.625 0 L 8.625 -18.671875 Z M 2.1875 -18.671875 "/></g></g></g><g fill="#5333ed" fill-opacity="1"><g transform="translate(167.373395, 353.34585)"><g><path d="M 8.453125 -24.171875 L 15.84375 -30.578125 L 19.15625 -26.390625 L 10.484375 -21.375 Z M 4.078125 -16.4375 C 1.921875 -14.582031 0.84375 -12.207031 0.84375 -9.3125 C 0.84375 -6.425781 1.878906 -4.0625 3.953125 -2.21875 C 6.023438 -0.375 8.738281 0.546875 12.09375 0.546875 C 15.3125 0.546875 17.972656 -0.378906 20.078125 -2.234375 C 22.179688 -4.097656 23.234375 -6.457031 23.234375 -9.3125 C 23.234375 -12.175781 22.15625 -14.539062 20 -16.40625 C 17.851562 -18.28125 15.21875 -19.21875 12.09375 -19.21875 C 8.90625 -19.21875 6.234375 -18.289062 4.078125 -16.4375 Z M 8.875 -6.171875 C 8.082031 -6.984375 7.6875 -8.03125 7.6875 -9.3125 C 7.6875 -10.601562 8.101562 -11.660156 8.9375 -12.484375 C 9.769531 -13.304688 10.804688 -13.71875 12.046875 -13.71875 C 13.265625 -13.71875 14.289062 -13.304688 15.125 -12.484375 C 15.96875 -11.660156 16.390625 -10.601562 16.390625 -9.3125 C 16.390625 -8.050781 15.976562 -7.007812 15.15625 -6.1875 C 14.34375 -5.363281 13.304688 -4.953125 12.046875 -4.953125 C 10.734375 -4.953125 9.675781 -5.359375 8.875 -6.171875 Z M 8.875 -6.171875 "/></g></g></g><g fill="#5333ed" fill-opacity="1"><g transform="translate(191.434093, 353.34585)"><g><path d="M 2.1875 0 L 2.1875 -18.671875 L 8.625 -18.671875 L 8.625 -16.703125 L 8.703125 -16.703125 C 10.378906 -18.378906 12.160156 -19.21875 14.046875 -19.21875 C 14.972656 -19.21875 15.890625 -19.097656 16.796875 -18.859375 C 17.710938 -18.617188 18.585938 -18.242188 19.421875 -17.734375 C 20.253906 -17.222656 20.929688 -16.5 21.453125 -15.5625 C 21.984375 -14.625 22.25 -13.539062 22.25 -12.3125 L 22.25 0 L 15.796875 0 L 15.796875 -10.5625 C 15.796875 -11.53125 15.484375 -12.378906 14.859375 -13.109375 C 14.242188 -13.835938 13.441406 -14.203125 12.453125 -14.203125 C 11.484375 -14.203125 10.601562 -13.820312 9.8125 -13.0625 C 9.019531 -12.3125 8.625 -11.476562 8.625 -10.5625 L 8.625 0 Z M 2.1875 0 "/></g></g></g><g fill="#5333ed" fill-opacity="1"><g transform="translate(215.494791, 353.34585)"><g/></g></g><g fill="#5333ed" fill-opacity="1"><g transform="translate(225.432112, 353.34585)"><g><path d="M 2.1875 -30.03125 L 10.890625 -30.03125 C 15.054688 -30.03125 18.617188 -28.601562 21.578125 -25.75 C 24.546875 -22.90625 26.03125 -19.332031 26.03125 -15.03125 C 26.03125 -10.71875 24.554688 -7.132812 21.609375 -4.28125 C 18.660156 -1.425781 15.085938 0 10.890625 0 L 2.1875 0 Z M 9.03125 -6.109375 L 10.078125 -6.109375 C 12.578125 -6.109375 14.625 -6.953125 16.21875 -8.640625 C 17.8125 -10.328125 18.617188 -12.445312 18.640625 -15 C 18.640625 -17.550781 17.84375 -19.675781 16.25 -21.375 C 14.664062 -23.070312 12.609375 -23.921875 10.078125 -23.921875 L 9.03125 -23.921875 Z M 9.03125 -6.109375 "/></g></g></g><g fill="#5333ed" fill-opacity="1"><g transform="translate(252.295638, 353.34585)"><g><path d="M 2.796875 -29.078125 C 3.554688 -29.835938 4.457031 -30.21875 5.5 -30.21875 C 6.539062 -30.21875 7.4375 -29.835938 8.1875 -29.078125 C 8.9375 -28.328125 9.3125 -27.429688 9.3125 -26.390625 C 9.3125 -25.347656 8.9375 -24.453125 8.1875 -23.703125 C 7.4375 -22.953125 6.539062 -22.578125 5.5 -22.578125 C 4.457031 -22.578125 3.554688 -22.953125 2.796875 -23.703125 C 2.046875 -24.453125 1.671875 -25.347656 1.671875 -26.390625 C 1.671875 -27.429688 2.046875 -28.328125 2.796875 -29.078125 Z M 2.1875 -18.671875 L 2.1875 0 L 8.625 0 L 8.625 -18.671875 Z M 2.1875 -18.671875 "/></g></g></g><g fill="#5333ed" fill-opacity="1"><g transform="translate(263.288572, 353.34585)"><g><path d="M 1.34375 4.59375 L 6.625 2 C 7.59375 3.601562 9.28125 4.40625 11.6875 4.40625 C 12.800781 4.40625 13.835938 4.046875 14.796875 3.328125 C 15.753906 2.609375 16.234375 1.507812 16.234375 0.03125 L 16.234375 -1.34375 C 15.097656 -0.0820312 13.0625 0.546875 10.125 0.546875 C 7.425781 0.546875 5.203125 -0.40625 3.453125 -2.3125 C 1.710938 -4.21875 0.84375 -6.550781 0.84375 -9.3125 C 0.84375 -12.082031 1.710938 -14.425781 3.453125 -16.34375 C 5.203125 -18.257812 7.425781 -19.21875 10.125 -19.21875 C 12.519531 -19.21875 14.519531 -18.476562 16.125 -17 L 16.234375 -17 L 16.234375 -18.671875 L 22.6875 -18.671875 L 22.6875 0.515625 C 22.6875 3.546875 21.675781 5.882812 19.65625 7.53125 C 17.644531 9.1875 14.988281 10.015625 11.6875 10.015625 C 6.34375 10.015625 2.894531 8.207031 1.34375 4.59375 Z M 8.9375 -12.484375 C 8.101562 -11.660156 7.6875 -10.601562 7.6875 -9.3125 C 7.6875 -8.03125 8.082031 -6.984375 8.875 -6.171875 C 9.675781 -5.359375 10.734375 -4.953125 12.046875 -4.953125 C 13.304688 -4.953125 14.34375 -5.363281 15.15625 -6.1875 C 15.976562 -7.007812 16.390625 -8.050781 16.390625 -9.3125 C 16.390625 -10.601562 15.96875 -11.660156 15.125 -12.484375 C 14.289062 -13.304688 13.265625 -13.71875 12.046875 -13.71875 C 10.804688 -13.71875 9.769531 -13.304688 8.9375 -12.484375 Z M 8.9375 -12.484375 "/></g></g></g><g fill="#5333ed" fill-opacity="1"><g transform="translate(288.15006, 353.34585)"><g><path d="M 2.796875 -29.078125 C 3.554688 -29.835938 4.457031 -30.21875 5.5 -30.21875 C 6.539062 -30.21875 7.4375 -29.835938 8.1875 -29.078125 C 8.9375 -28.328125 9.3125 -27.429688 9.3125 -26.390625 C 9.3125 -25.347656 8.9375 -24.453125 8.1875 -23.703125 C 7.4375 -22.953125 6.539062 -22.578125 5.5 -22.578125 C 4.457031 -22.578125 3.554688 -22.953125 2.796875 -23.703125 C 2.046875 -24.453125 1.671875 -25.347656 1.671875 -26.390625 C 1.671875 -27.429688 2.046875 -28.328125 2.796875 -29.078125 Z M 2.1875 -18.671875 L 2.1875 0 L 8.625 0 L 8.625 -18.671875 Z M 2.1875 -18.671875 "/></g></g></g><g fill="#5333ed" fill-opacity="1"><g transform="translate(299.142994, 353.34585)"><g><path d="M 3.28125 -18.671875 L 3.28125 -25.625 L 9.71875 -25.625 L 9.71875 -18.671875 L 13.65625 -18.671875 L 13.65625 -13.765625 L 9.71875 -13.765625 L 9.71875 -7.828125 C 9.71875 -6.109375 10.203125 -5.25 11.171875 -5.25 C 11.421875 -5.25 11.675781 -5.296875 11.9375 -5.390625 C 12.207031 -5.484375 12.414062 -5.578125 12.5625 -5.671875 L 12.78125 -5.828125 L 14.375 -0.625 C 13 0.15625 11.421875 0.546875 9.640625 0.546875 C 8.429688 0.546875 7.390625 0.332031 6.515625 -0.09375 C 5.640625 -0.519531 4.976562 -1.085938 4.53125 -1.796875 C 4.082031 -2.515625 3.757812 -3.269531 3.5625 -4.0625 C 3.375 -4.851562 3.28125 -5.695312 3.28125 -6.59375 L 3.28125 -13.765625 L 0.578125 -13.765625 L 0.578125 -18.671875 Z M 3.28125 -18.671875 "/></g></g></g><g fill="#5333ed" fill-opacity="1"><g transform="translate(313.521169, 353.34585)"><g><path d="M 3.453125 -2.3125 C 1.710938 -4.21875 0.84375 -6.550781 0.84375 -9.3125 C 0.84375 -12.082031 1.710938 -14.425781 3.453125 -16.34375 C 5.203125 -18.257812 7.425781 -19.21875 10.125 -19.21875 C 12.59375 -19.21875 14.628906 -18.441406 16.234375 -16.890625 L 16.234375 -18.671875 L 22.6875 -18.671875 L 22.6875 0 L 16.3125 0 L 16.3125 -2.109375 L 16.234375 -2.109375 C 14.628906 -0.335938 12.59375 0.546875 10.125 0.546875 C 7.425781 0.546875 5.203125 -0.40625 3.453125 -2.3125 Z M 8.9375 -12.484375 C 8.101562 -11.660156 7.6875 -10.601562 7.6875 -9.3125 C 7.6875 -8.03125 8.082031 -6.984375 8.875 -6.171875 C 9.675781 -5.359375 10.734375 -4.953125 12.046875 -4.953125 C 13.304688 -4.953125 14.34375 -5.363281 15.15625 -6.1875 C 15.976562 -7.007812 16.390625 -8.050781 16.390625 -9.3125 C 16.390625 -10.601562 15.96875 -11.660156 15.125 -12.484375 C 14.289062 -13.304688 13.265625 -13.71875 12.046875 -13.71875 C 10.804688 -13.71875 9.769531 -13.304688 8.9375 -12.484375 Z M 8.9375 -12.484375 "/></g></g></g><g fill="#5333ed" fill-opacity="1"><g transform="translate(338.382657, 353.34585)"><g><path d="M 2.1875 0 L 2.1875 -31.3125 L 8.625 -31.3125 L 8.625 0 Z M 2.1875 0 "/></g></g></g></svg>